<?xml version="1.0" encoding="UTF-8" standalone="no"?>
<svg width="256px" height="192px" viewBox="0 0 256 192" version="1.1" xmlns="http://www.w3.org/2000/svg" xmlns:xlink="http://www.w3.org/1999/xlink" xmlns:sketch="http://www.bohemiancoding.com/sketch/ns">
    <!-- Generator: Sketch 3.0.4 (8054) - http://www.bohemiancoding.com/sketch -->
    <title>Group</title>
    <desc>Created with Sketch.</desc>
    <defs></defs>
    <g id="Page-1" stroke="none" stroke-width="1" fill="none" fill-rule="evenodd" sketch:type="MSPage">
        <g id="Group" sketch:type="MSLayerGroup" fill="#29313C">
            <path d="M240,80 L222.659,80 C215.017,34.655 175.482,0 128,0 C111.15,0 94.549,4.453 79.99,12.877 C72.342,17.302 69.728,27.089 74.152,34.738 C78.579,42.386 88.363,44.998 96.015,40.575 C105.71,34.965 116.769,32 127.999,32 C157.765,32 182.851,52.428 189.975,80 L176.001,80 C169.528,80 163.694,83.898 161.218,89.878 C158.741,95.856 160.111,102.738 164.685,107.314 L196.685,139.314 C199.81,142.438 203.905,144.001 207.999,144.001 C212.093,144.001 216.188,142.439 219.312,139.314 L251.312,107.314 C255.889,102.738 257.258,95.855 254.781,89.878 C252.305,83.899 246.47,80 240,80 Z" id="Shape" sketch:type="MSShapeGroup"></path>
            <path d="M159.982,151.425 C150.287,157.035 139.229,160 128.002,160 C98.234,160 73.147,139.572 66.023,112 L80,112 C86.469,112 92.305,108.102 94.781,102.123 C97.257,96.144 95.888,89.262 91.312,84.686 L59.312,52.686 C53.064,46.437 42.933,46.437 36.685,52.686 L4.685,84.686 C0.11,89.261 -1.26,96.144 1.216,102.123 C3.694,108.102 9.527,112 15.999,112 L33.34,112 C40.981,157.345 80.517,192 128.001,192 C144.848,192 161.448,187.547 176.009,179.124 C183.657,174.698 186.269,164.911 181.845,157.262 C177.42,149.612 167.633,147.002 159.982,151.425 L159.982,151.425 Z" id="Shape" sketch:type="MSShapeGroup"></path>
        </g>
    </g>
</svg>